Coordinates
version=1
nRows=29
nColumns=22
inDegrees=yes

Units are S.I. units (second, meters, Newtons, ...)
If the header above contains a line with 'inDegrees', this indicates whether rotational values are in degrees (yes) or radians (no).

endheader
time	pelvis_tilt	pelvis_list	pelvis_rotation	pelvis_tx	pelvis_ty	pelvis_tz	hip_flexion_r	hip_adduction_r	hip_rotation_r	knee_angle_r	ankle_angle_r	subtalar_angle_r	hip_flexion_l	hip_adduction_l	hip_rotation_l	knee_angle_l	ankle_angle_l	subtalar_angle_l	lumbar_extension	lumbar_bending	lumbar_rotation
      2.52000000	     -4.36525011	     -2.45821346	    -34.53336400	     -0.51786717	      0.93225536	      0.24301908	     -3.64323126	     12.28739459	     10.63792862	    -15.22709975	     17.48762207	     -6.98251011	     30.98363711	     -5.38096111	     12.04885552	    -17.24382665	     10.06241847	      8.13899945	     -6.24425531	      0.93682602	     14.44103749
      2.53000000	     -4.39785109	     -2.32207190	    -34.89119823	     -0.51105868	      0.93094659	      0.24689006	     -3.77025382	     12.15373450	     10.99506893	    -15.83801178	     17.86274131	     -6.92732057	     30.89833256	     -5.20056844	     12.17694600	    -16.53710286	     10.04753124	      8.01395796	     -6.10457488	      0.83132182	     14.41185146
      2.54000000	     -4.39555645	     -2.17726538	    -35.24765125	     -0.50410090	      0.92969945	      0.25079783	     -3.90579235	     11.98928933	     11.33696896	    -16.49540000	     18.18223690	     -6.82988409	     30.84580832	     -4.95563483	     12.23650315	    -16.26554452	      9.97827911	      7.81618636	     -5.98154502	      0.70290001	     14.36098900
      2.55000000	     -4.39100214	     -2.03077220	    -35.58989524	     -0.49697972	      0.92849842	      0.25474242	     -4.04117879	     11.81751049	     11.64726890	    -17.16505750	     18.44599571	     -6.69105758	     30.83170223	     -4.66488916	     12.31695229	    -16.36554840	      9.81546775	      7.55439234	     -5.84458960	      0.57956699	     14.29171443
      2.56000000	     -4.39915734	     -1.89273711	    -35.91705887	     -0.48974590	      0.92735372	      0.25873206	     -4.15863405	     11.66245729	     11.93860622	    -17.86211846	     18.64552837	     -6.50363598	     30.84456684	     -4.35274797	     12.46476728	    -16.75746149	      9.52023359	      7.17953391	     -5.68945283	      0.48051772	     14.18412746
      2.57000000	     -4.40615212	     -1.76512602	    -36.23033978	     -0.48242694	      0.92630844	      0.26275100	     -4.28502694	     11.51404022	     12.22485229	    -18.55633494	     18.79570431	     -6.32304385	     30.88321573	     -4.01609767	     12.68703484	    -17.41404343	      9.04511454	      6.73228316	     -5.53898724	      0.39286731	     14.08203833
      2.58000000	     -4.40999107	     -1.61901056	    -36.54549726	     -0.47505905	      0.92538934	      0.26684596	     -4.38522869	     11.35217196	     12.51790215	    -19.28222081	     18.85781746	     -6.16787841	     30.93316421	     -3.65777675	     12.92442161	    -18.22175317	      8.38718308	      6.22170451	     -5.37369878	      0.28455634	     13.96565015
      2.59000000	     -4.41515454	     -1.46386532	    -36.85709071	     -0.46767094	      0.92462041	      0.27099706	     -4.45180305	     11.19016475	     12.81302949	    -20.04860482	     18.83283271	     -6.01579021	     31.00378444	     -3.29306992	     13.15879191	    -19.13416206	      7.55172712	      5.61025526	     -5.20029221	      0.16566944	     13.84004915
      2.60000000	     -4.41386652	     -1.30128612	    -37.15873358	     -0.46024656	      0.92404747	      0.27521361	     -4.49977740	     11.02468434	     13.11259349	    -20.84125924	     18.70193612	     -5.84720711	     31.08366755	     -2.92744188	     13.36206894	    -20.09591083	      6.57056185	      4.90012454	     -5.02639730	      0.03249561	     13.70346834
      2.61000000	     -4.40061732	     -1.12434342	    -37.45317901	     -0.45277755	      0.92368382	      0.27950757	     -4.51920964	     10.84733957	     13.40205398	    -21.67728948	     18.47177431	     -5.66846089	     31.16950768	     -2.56466145	     13.49096340	    -21.07202638	      5.52780906	      4.16851086	     -4.84899941	     -0.12623025	     13.55981694
      2.62000000	     -4.36880832	     -0.95167243	    -37.73351246	     -0.44523190	      0.92356313	      0.28389686	     -4.53349620	     10.66848061	     13.67104085	    -22.54544979	     18.11987850	     -5.46306636	     31.23457908	     -2.22092925	     13.53559269	    -22.03586567	      4.49882410	      3.45479830	     -4.68313968	     -0.29836559	     13.39511222
      2.63000000	     -4.32094715	     -0.77635451	    -38.00328313	     -0.43758860	      0.92366563	      0.28839315	     -4.52646859	     10.48367520	     13.90485622	    -23.46335792	     17.66072940	     -5.23402695	     31.26923595	     -1.90011710	     13.48298774	    -22.96328048	      3.54836355	      2.83195934	     -4.51618453	     -0.48560437	     13.21750345
      2.64000000	     -4.25790629	     -0.61699205	    -38.26155248	     -0.42982831	      0.92400612	      0.29301879	     -4.51430147	     10.30678948	     14.09447325	    -24.41862828	     17.06544046	     -4.96015937	     31.24117246	     -1.61963680	     13.35193331	    -23.82958811	      2.71758902	      2.32753617	     -4.35548261	     -0.67305784	     13.01700633
      2.65000000	     -4.18928600	     -0.48591786	    -38.49972989	     -0.42191892	      0.92456307	      0.29773893	     -4.49440767	     10.14897542	     14.22208168	    -25.40913630	     16.31086240	     -4.58207293	     31.13835892	     -1.38726466	     13.15832452	    -24.61937436	      2.04192151	      1.90888490	     -4.20004452	     -0.83287172	     12.78615954
      2.66000000	     -4.12283917	     -0.37254870	    -38.74088275	     -0.41393544	      0.92528787	      0.30256933	     -4.42598011	     10.00921216	     14.28275180	    -26.47682713	     15.43969768	     -4.12187094	     30.96825782	     -1.21233452	     12.88588795	    -25.32644661	      1.53935499	      1.65599147	     -4.03859063	     -0.97540197	     12.54389267
      2.67000000	     -4.06835241	     -0.28257615	    -38.99202838	     -0.40592030	      0.92615834	      0.30747664	     -4.28750168	      9.89686563	     14.27455685	    -27.63757631	     14.42172169	     -3.52976231	     30.72811713	     -1.09998416	     12.56068239	    -25.93784265	      1.19604791	      1.50691822	     -3.87312136	     -1.08581850	     12.30005228
      2.68000000	     -4.02424263	     -0.21379264	    -39.23693877	     -0.39786981	      0.92715153	      0.31242705	     -4.07222740	      9.80220974	     14.16030018	    -28.88643792	     13.22805978	     -2.69288411	     30.41929015	     -1.03175322	     12.20422590	    -26.45424003	      1.05150400	      1.39786820	     -3.70504355	     -1.16383942	     12.00593624
      2.69000000	     -3.99960864	     -0.15819792	    -39.50565540	     -0.38990694	      0.92821581	      0.31738747	     -3.72398526	      9.72692506	     13.95083737	    -30.28204431	     11.88190188	     -1.67525685	     30.06156691	     -1.01147597	     11.81498167	    -26.87982398	      1.04527106	      1.30961893	     -3.53535265	     -1.21197169	     11.71145578
      2.70000000	     -3.99125635	     -0.11219902	    -39.79550360	     -0.38206950	      0.92932288	      0.32232103	     -3.22236078	      9.66082887	     13.62570402	    -31.84320038	     10.37601562	     -0.44020033	     29.66316094	     -1.02343011	     11.40637765	    -27.22579219	      1.16603593	      1.19632414	     -3.37128550	     -1.23428029	     11.40134217
      2.71000000	     -3.96728409	     -0.07343306	    -40.10968780	     -0.37438704	      0.93048614	      0.32720616	     -2.57810817	      9.57597816	     13.18899634	    -33.58111359	      8.72300068	      1.04445577	     29.19176731	     -1.03566286	     11.00923514	    -27.48147597	      1.39414295	      1.04515565	     -3.24692690	     -1.25620943	     11.07807495
      2.72000000	     -3.98574354	     -0.02181111	    -40.44921477	     -0.36694448	      0.93153961	      0.33199847	     -1.70288869	      9.49536383	     12.63614793	    -35.52477459	      6.95387970	      2.61008858	     28.76808635	     -1.07352679	     10.56255282	    -27.72878443	      1.71167770	      0.82674903	     -3.10596173	     -1.25050877	     10.72380805
      2.73000000	     -3.96937617	      0.02936248	    -40.81895425	     -0.35972191	      0.93259366	      0.33670393	     -0.68382233	      9.36442087	     11.98358572	    -37.64172786	      5.12857891	      4.36285385	     28.27589252	     -1.09065917	     10.12316180	    -27.90396746	      2.08947960	      0.55943134	     -3.02782016	     -1.26361378	     10.35925400
      2.74000000	     -3.93478887	      0.09832798	    -41.21440169	     -0.35274103	      0.93355272	      0.34128958	      0.50106657	      9.17102964	     11.23478146	    -39.91673304	      3.33771897	      6.12255942	     27.77563487	     -1.08298869	      9.66173581	    -28.05648980	      2.50986015	      0.24710206	     -2.98810656	     -1.29638423	      9.97139926
      2.75000000	     -3.83964485	      0.15276837	    -41.63805739	     -0.34595596	      0.93449446	      0.34578441	      1.75538789	      8.90106380	     10.42730232	    -42.28344881	      1.69140265	      7.94116538	     27.18883270	     -1.04395632	      9.21354367	    -28.15952535	      3.00227420	     -0.09726037	     -3.04350933	     -1.35317539	      9.57867075
      2.76000000	     -3.71897792	      0.24720737	    -42.07582574	     -0.33936421	      0.93527363	      0.35013902	      3.14490399	      8.52422872	      9.54346722	    -44.73553467	      0.31875299	      9.53527505	     26.63143472	     -0.95469179	      8.71986840	    -28.28108525	      3.50278402	     -0.45559514	     -3.12093106	     -1.44853623	      9.14565625
      2.77000000	     -3.54444574	      0.35339044	    -42.52674613	     -0.33291719	      0.93597101	      0.35438971	      4.58559417	      8.03467145	      8.60988309	    -47.20474266	     -0.67180592	     10.82473719	     26.04007091	     -0.81684525	      8.20758881	    -28.39068274	      4.02423964	     -0.80685337	     -3.25953721	     -1.58383156	      8.68268884
      2.78000000	     -3.31300537	      0.45705329	    -42.98318330	     -0.32657506	      0.93663029	      0.35854306	      6.03609620	      7.43826528	      7.64120343	    -49.63501948	     -1.23181272	     11.69262090	     25.40338173	     -0.63403940	      7.68752660	    -28.48853449	      4.55176662	     -1.13593193	     -3.46594103	     -1.74646536	      8.18826382
      2.79000000	     -3.04001545	      0.55460486	    -43.43891947	     -0.32031943	      0.93725681	      0.36260595	      7.48429956	      6.75445820	      6.65788477	    -51.98258017	     -1.34763514	     12.00432110	     24.73292141	     -0.41553547	      7.17112453	    -28.57495559	      5.09140974	     -1.43339231	     -3.72496235	     -1.92110058	      7.65592126
      2.80000000	     -2.72418989	      0.62339643	    -43.89499969	     -0.31412465	      0.93793915	      0.36662242	      8.88555671	      6.00210550	      5.66921645	    -54.18717306	     -1.05723496	     11.91166587	     23.98844275	     -0.17474444	      6.68630440	    -28.61375996	      5.64659370	     -1.66592479	     -4.04608464	     -2.09361497	      7.11270505
